<svg xmlns="http://www.w3.org/2000/svg" xmlns:xlink="http://www.w3.org/1999/xlink" width="281" height="217" contentScriptType="application/ecmascript" contentStyleType="text/css" style="width:281px;height:217px" preserveAspectRatio="none" version="1.1" viewBox="0 0 281 217" zoomAndPan="magnify"><defs><filter id="f1ieo8q2h74ejp" width="300%" height="300%" x="-1" y="-1"><feGaussianBlur result="blurOut" stdDeviation="2"/><feColorMatrix in="blurOut" result="blurOut2" type="matrix" values="0 0 0 0 0 0 0 0 0 0 0 0 0 0 0 0 0 0 .4 0"/><feOffset dx="4" dy="4" in="blurOut2" result="blurOut3"/><feBlend in="SourceGraphic" in2="blurOut3" mode="normal"/></filter></defs><g><rect id="MessageBus" width="89" height="26.488" x="93" y="8" fill="#F8F8F8" filter="url(#f1ieo8q2h74ejp)" style="stroke:#383838;stroke-width:1.5"/><text x="96" y="26.535" fill="#000" font-family="Roboto" font-size="14" lengthAdjust="spacingAndGlyphs" textLength="83">MessageBus</text><rect id="MessageBusConnection" width="168" height="26.488" x="53.5" y="94" fill="#F8F8F8" filter="url(#f1ieo8q2h74ejp)" style="stroke:#383838;stroke-width:1.5"/><text x="56.5" y="112.535" fill="#000" font-family="Roboto" font-size="14" lengthAdjust="spacingAndGlyphs" textLength="162">MessageBusConnection</text><rect id="DH" width="113" height="26.488" x="6" y="180" fill="#F8F8F8" filter="url(#f1ieo8q2h74ejp)" style="stroke:#383838;stroke-width:1.5"/><text x="9" y="198.535" fill="#000" font-family="Roboto" font-size="14" lengthAdjust="spacingAndGlyphs" textLength="107">Default Handler</text><rect id="TH" width="116" height="26.488" x="154.5" y="180" fill="#F8F8F8" filter="url(#f1ieo8q2h74ejp)" style="stroke:#383838;stroke-width:1.5"/><text x="157.5" y="198.535" fill="#000" font-family="Roboto" font-size="14" lengthAdjust="spacingAndGlyphs" textLength="110">(Topic-Handler)</text><path id="MessageBus&lt;-MessageBusConnection" fill="none" d="M137.5,47.42 C137.5,62.87 137.5,81.89 137.5,93.99" style="stroke:#383838;stroke-width:1"/><polygon fill="#FFF" points="137.5 34.04 133.5 40.04 137.5 46.04 141.5 40.04 137.5 34.04" style="stroke:#383838;stroke-width:1"/><text x="126.644" y="56.254" fill="#000" font-family="Roboto" font-size="14" lengthAdjust="spacingAndGlyphs" textLength="9">1</text><text x="129.056" y="82.859" fill="#000" font-family="Roboto" font-size="14" lengthAdjust="spacingAndGlyphs" textLength="7">*</text><path id="MessageBusConnection&lt;-DH" fill="none" d="M117.74,130.13 C103.49,146.09 84.8,167.02 73.23,179.99" style="stroke:#383838;stroke-width:1"/><polygon fill="#FFF" points="126.75 120.04 119.77 121.853 118.76 128.993 125.739 127.18 126.75 120.04" style="stroke:#383838;stroke-width:1"/><text x="46.294" y="168.858" fill="#000" font-family="Roboto" font-size="14" lengthAdjust="spacingAndGlyphs" textLength="26">0..1</text><path id="MessageBusConnection&lt;-TH" fill="none" d="M157.26,130.13 C171.51,146.09 190.2,167.02 201.77,179.99" style="stroke:#383838;stroke-width:1"/><polygon fill="#383838" points="148.25 120.04 149.261 127.18 156.24 128.993 155.23 121.853 148.25 120.04" style="stroke:#383838;stroke-width:1"/><text x="188.9" y="168.858" fill="#000" font-family="Roboto" font-size="14" lengthAdjust="spacingAndGlyphs" textLength="7">*</text></g></svg>