<svg xmlns="http://www.w3.org/2000/svg" xmlns:xlink="http://www.w3.org/1999/xlink" width="272" height="217" contentScriptType="application/ecmascript" contentStyleType="text/css" style="width:272px;height:217px" preserveAspectRatio="none" version="1.1" viewBox="0 0 272 217" zoomAndPan="magnify"><defs><filter id="flxjwaxnzvwzg" width="300%" height="300%" x="-1" y="-1"><feGaussianBlur result="blurOut" stdDeviation="2"/><feColorMatrix in="blurOut" result="blurOut2" type="matrix" values="0 0 0 0 0 0 0 0 0 0 0 0 0 0 0 0 0 0 .4 0"/><feOffset dx="4" dy="4" in="blurOut2" result="blurOut3"/><feBlend in="SourceGraphic" in2="blurOut3" mode="normal"/></filter></defs><g><rect id="B" width="31" height="26.488" x="117.5" y="8" fill="#F8F8F8" filter="url(#flxjwaxnzvwzg)" style="stroke:#383838;stroke-width:1.5"/><text x="120.5" y="26.535" fill="#000" font-family="Roboto" font-size="14" lengthAdjust="spacingAndGlyphs" textLength="25">bus</text><rect id="C1" width="91" height="26.488" x="20.5" y="94" fill="#F8F8F8" filter="url(#flxjwaxnzvwzg)" style="stroke:#383838;stroke-width:1.5"/><text x="23.5" y="112.535" fill="#000" font-family="Roboto" font-size="14" lengthAdjust="spacingAndGlyphs" textLength="85">connection1</text><rect id="C2" width="91" height="26.488" x="155.5" y="94" fill="#F8F8F8" filter="url(#flxjwaxnzvwzg)" style="stroke:#383838;stroke-width:1.5"/><text x="158.5" y="112.535" fill="#000" font-family="Roboto" font-size="14" lengthAdjust="spacingAndGlyphs" textLength="85">connection2</text><rect id="TH1" width="110" height="26.488" x="6" y="180" fill="#F8F8F8" filter="url(#flxjwaxnzvwzg)" style="stroke:#383838;stroke-width:1.5"/><text x="9" y="198.535" fill="#000" font-family="Roboto" font-size="14" lengthAdjust="spacingAndGlyphs" textLength="104">topic-handler1</text><rect id="TH2" width="110" height="26.488" x="151" y="180" fill="#F8F8F8" filter="url(#flxjwaxnzvwzg)" style="stroke:#383838;stroke-width:1.5"/><text x="154" y="198.535" fill="#000" font-family="Roboto" font-size="14" lengthAdjust="spacingAndGlyphs" textLength="104">topic-handler2</text><path id="B&lt;-C1" fill="none" d="M114.98,44.59 C102.3,60.49 85.82,81.15 75.58,93.99" style="stroke:#383838;stroke-width:1"/><polygon fill="#383838" points="123.4 34.04 116.53 36.231 115.91 43.416 122.78 41.224 123.4 34.04" style="stroke:#383838;stroke-width:1"/><path id="B&lt;-C2" fill="none" d="M151.29,44.59 C164.16,60.49 180.88,81.15 191.28,93.99" style="stroke:#383838;stroke-width:1"/><polygon fill="#383838" points="142.74 34.04 143.404 41.221 150.288 43.369 149.624 36.189 142.74 34.04" style="stroke:#383838;stroke-width:1"/><path id="C1&lt;-TH1" fill="none" d="M64.49,133.42 C63.57,148.87 62.43,167.89 61.72,179.99" style="stroke:#383838;stroke-width:1"/><polygon fill="#383838" points="65.28 120.04 60.931 125.792 64.568 132.019 68.917 126.267 65.28 120.04" style="stroke:#383838;stroke-width:1"/><path id="C2&lt;-TH2" fill="none" d="M202.51,133.42 C203.43,148.87 204.57,167.89 205.28,179.99" style="stroke:#383838;stroke-width:1"/><polygon fill="#383838" points="201.72 120.04 198.083 126.267 202.432 132.019 206.069 125.792 201.72 120.04" style="stroke:#383838;stroke-width:1"/></g></svg>