<svg xmlns="http://www.w3.org/2000/svg" xmlns:xlink="http://www.w3.org/1999/xlink" width="423" height="303" contentScriptType="application/ecmascript" contentStyleType="text/css" style="width:423px;height:303px" preserveAspectRatio="none" version="1.1" viewBox="0 0 423 303" zoomAndPan="magnify"><defs><filter id="f115d3lj2jz7rn" width="300%" height="300%" x="-1" y="-1"><feGaussianBlur result="blurOut" stdDeviation="2"/><feColorMatrix in="blurOut" result="blurOut2" type="matrix" values="0 0 0 0 0 0 0 0 0 0 0 0 0 0 0 0 0 0 .4 0"/><feOffset dx="4" dy="4" in="blurOut2" result="blurOut3"/><feBlend in="SourceGraphic" in2="blurOut3" mode="normal"/></filter></defs><g><rect id="AB" width="111" height="26.488" x="222" y="8" fill="#F8F8F8" filter="url(#f115d3lj2jz7rn)" style="stroke:#383838;stroke-width:1.5"/><text x="225" y="26.535" fill="#000" font-family="Roboto" font-size="14" lengthAdjust="spacingAndGlyphs" textLength="105">application bus</text><rect id="PB" width="83" height="26.488" x="171" y="94" fill="#F8F8F8" filter="url(#f115d3lj2jz7rn)" style="stroke:#383838;stroke-width:1.5"/><text x="174" y="112.535" fill="#000" font-family="Roboto" font-size="14" lengthAdjust="spacingAndGlyphs" textLength="77">project bus</text><rect id="C1" width="91" height="26.488" x="298" y="94" fill="#F8F8F8" filter="url(#f115d3lj2jz7rn)" style="stroke:#383838;stroke-width:1.5"/><text x="301" y="112.535" fill="#000" font-family="Roboto" font-size="14" lengthAdjust="spacingAndGlyphs" textLength="85">connection1</text><rect id="C2" width="91" height="26.488" x="34" y="180" fill="#F8F8F8" filter="url(#f115d3lj2jz7rn)" style="stroke:#383838;stroke-width:1.5"/><text x="37" y="198.535" fill="#000" font-family="Roboto" font-size="14" lengthAdjust="spacingAndGlyphs" textLength="85">connection2</text><rect id="C3" width="91" height="26.488" x="167" y="180" fill="#F8F8F8" filter="url(#f115d3lj2jz7rn)" style="stroke:#383838;stroke-width:1.5"/><text x="170" y="198.535" fill="#000" font-family="Roboto" font-size="14" lengthAdjust="spacingAndGlyphs" textLength="85">connection3</text><rect id="T1H1" width="119" height="26.488" x="293" y="180" fill="#F8F8F8" filter="url(#f115d3lj2jz7rn)" style="stroke:#383838;stroke-width:1.5"/><text x="296" y="198.535" fill="#000" font-family="Roboto" font-size="14" lengthAdjust="spacingAndGlyphs" textLength="113">topic1-handler1</text><rect id="T1H2" width="119" height="26.488" x="6" y="266" fill="#F8F8F8" filter="url(#f115d3lj2jz7rn)" style="stroke:#383838;stroke-width:1.5"/><text x="9" y="284.535" fill="#000" font-family="Roboto" font-size="14" lengthAdjust="spacingAndGlyphs" textLength="113">topic1-handler2</text><rect id="T1H3" width="119" height="26.488" x="160" y="266" fill="#F8F8F8" filter="url(#f115d3lj2jz7rn)" style="stroke:#383838;stroke-width:1.5"/><text x="163" y="284.535" fill="#000" font-family="Roboto" font-size="14" lengthAdjust="spacingAndGlyphs" textLength="113">topic1-handler3</text><path id="AB&lt;-PB" fill="none" d="M260.02,44.59 C247.72,60.49 231.73,81.15 221.8,93.99" style="stroke:#383838;stroke-width:1"/><polygon fill="#FFF" points="268.19 34.04 261.355 36.338 260.847 43.531 267.683 41.233 268.19 34.04" style="stroke:#383838;stroke-width:1"/><path id="AB&lt;-C1" fill="none" d="M295.25,44.59 C307.74,60.49 323.97,81.15 334.06,93.99" style="stroke:#383838;stroke-width:1"/><polygon fill="#383838" points="286.96 34.04 287.518 41.23 294.369 43.48 293.811 36.29 286.96 34.04" style="stroke:#383838;stroke-width:1"/><path id="PB&lt;-C2" fill="none" d="M182.45,126.98 C156.71,143.24 120.43,166.15 98.52,179.99" style="stroke:#383838;stroke-width:1"/><polygon fill="#383838" points="193.44 120.04 186.231 119.864 183.296 126.451 190.505 126.627 193.44 120.04" style="stroke:#383838;stroke-width:1"/><path id="PB&lt;-C3" fill="none" d="M212.5,133.42 C212.5,148.87 212.5,167.89 212.5,179.99" style="stroke:#383838;stroke-width:1"/><polygon fill="#383838" points="212.5 120.04 208.5 126.04 212.5 132.04 216.5 126.04 212.5 120.04" style="stroke:#383838;stroke-width:1"/><path id="C1&lt;-T1H1" fill="none" d="M346.22,133.42 C347.88,148.87 349.92,167.89 351.21,179.99" style="stroke:#383838;stroke-width:1"/><polygon fill="#383838" points="344.79 120.04 341.452 126.432 346.069 131.972 349.407 125.579 344.79 120.04" style="stroke:#383838;stroke-width:1"/><path id="C2&lt;-T1H2" fill="none" d="M75.34,218.94 C72.75,234.48 69.54,253.77 67.5,265.99" style="stroke:#383838;stroke-width:1"/><polygon fill="#383838" points="77.49 206.04 72.555 211.298 75.511 217.876 80.446 212.618 77.49 206.04" style="stroke:#383838;stroke-width:1"/><path id="C3&lt;-T1H3" fill="none" d="M214.62,219.42 C215.91,234.87 217.49,253.89 218.5,265.99" style="stroke:#383838;stroke-width:1"/><polygon fill="#383838" points="213.5 206.04 210.015 212.353 214.502 217.998 217.987 211.685 213.5 206.04" style="stroke:#383838;stroke-width:1"/></g></svg>