<svg xmlns="http://www.w3.org/2000/svg" xmlns:xlink="http://www.w3.org/1999/xlink" width="712" height="121" contentScriptType="application/ecmascript" contentStyleType="text/css" style="width:712px;height:121px" preserveAspectRatio="none" version="1.1" viewBox="0 0 712 121" zoomAndPan="magnify"><defs><filter id="f1qiawlhfa818j" width="300%" height="300%" x="-1" y="-1"><feGaussianBlur result="blurOut" stdDeviation="2"/><feColorMatrix in="blurOut" result="blurOut2" type="matrix" values="0 0 0 0 0 0 0 0 0 0 0 0 0 0 0 0 0 0 .4 0"/><feOffset dx="4" dy="4" in="blurOut2" result="blurOut3"/><feBlend in="SourceGraphic" in2="blurOut3" mode="normal"/></filter></defs><g><ellipse cx="16" cy="59" fill="#000" filter="url(#f1qiawlhfa818j)" rx="10" ry="10" style="stroke:none;stroke-width:1"/><rect style="stroke:#383838;stroke-width:1.5" width="114" height="52.977" x="66" y="32.5" fill="#F8F8F8" filter="url(#f1qiawlhfa818j)" rx="12.5" ry="12.5"/><text x="79.5" y="56.035" fill="#000" font-family="Roboto" font-size="14" lengthAdjust="spacingAndGlyphs" textLength="87">Get message</text><text x="76" y="72.523" fill="#000" font-family="Roboto" font-size="14" lengthAdjust="spacingAndGlyphs" textLength="94">bus reference</text><rect style="stroke:#383838;stroke-width:1.5" width="133" height="69.465" x="220" y="24.5" fill="#F8F8F8" filter="url(#f1qiawlhfa818j)" rx="12.5" ry="12.5"/><text x="246.5" y="48.035" fill="#000" font-family="Roboto" font-size="14" lengthAdjust="spacingAndGlyphs" textLength="80">Ask the bus</text><text x="235.5" y="64.523" fill="#000" font-family="Roboto" font-size="14" lengthAdjust="spacingAndGlyphs" textLength="102">for a particular</text><text x="230" y="81.012" fill="#000" font-family="Roboto" font-size="14" lengthAdjust="spacingAndGlyphs" textLength="113">topic&apos;s publisher</text><rect style="stroke:#383838;stroke-width:1.5" width="95" height="69.465" x="393" y="24.5" fill="#F8F8F8" filter="url(#f1qiawlhfa818j)" rx="12.5" ry="12.5"/><text x="405" y="48.035" fill="#000" font-family="Roboto" font-size="14" lengthAdjust="spacingAndGlyphs" textLength="71">Call target</text><text x="403" y="64.523" fill="#000" font-family="Roboto" font-size="14" lengthAdjust="spacingAndGlyphs" textLength="75">method on</text><text x="408" y="81.012" fill="#000" font-family="Roboto" font-size="14" lengthAdjust="spacingAndGlyphs" textLength="65">publisher</text><rect style="stroke:#383838;stroke-width:1.5" width="113" height="102.441" x="528" y="8" fill="#F8F8F8" filter="url(#f1qiawlhfa818j)" rx="12.5" ry="12.5"/><text x="548" y="31.535" fill="#000" font-family="Roboto" font-size="14" lengthAdjust="spacingAndGlyphs" textLength="73">Messaging</text><text x="556.5" y="48.023" fill="#000" font-family="Roboto" font-size="14" lengthAdjust="spacingAndGlyphs" textLength="56">calls the</text><text x="538" y="64.512" fill="#000" font-family="Roboto" font-size="14" lengthAdjust="spacingAndGlyphs" textLength="93">same method</text><text x="553" y="81" fill="#000" font-family="Roboto" font-size="14" lengthAdjust="spacingAndGlyphs" textLength="63">on target</text><text x="554.5" y="97.488" fill="#000" font-family="Roboto" font-size="14" lengthAdjust="spacingAndGlyphs" textLength="60">handlers</text><ellipse cx="691" cy="59" fill="none" filter="url(#f1qiawlhfa818j)" rx="10" ry="10" style="stroke:#000;stroke-width:1"/><ellipse cx="691.5" cy="59.5" fill="#000" rx="6" ry="6" style="stroke:none;stroke-width:1"/><path id="start-&gt;Get message\nbus reference" fill="none" d="M26.32,59 C34.54,59 47.3,59 60.86,59" style="stroke:#383838;stroke-width:1"/><polygon fill="#383838" points="65.88 59 56.88 55 60.88 59 56.88 63 65.88 59" style="stroke:#383838;stroke-width:1"/><path id="Get message\nbus reference-&gt;Ask the bus\nfor a particular\ntopic's publisher" fill="none" d="M180.03,59 C191.17,59 203.01,59 214.57,59" style="stroke:#383838;stroke-width:1"/><polygon fill="#383838" points="219.86 59 210.86 55 214.86 59 210.86 63 219.86 59" style="stroke:#383838;stroke-width:1"/><path id="Ask the bus\nfor a particular\ntopic's publisher-&gt;Call target\nmethod on\npublisher" fill="none" d="M353.29,59 C364.84,59 376.71,59 387.8,59" style="stroke:#383838;stroke-width:1"/><polygon fill="#383838" points="392.84 59 383.84 55 387.84 59 383.84 63 392.84 59" style="stroke:#383838;stroke-width:1"/><path id="Call target\nmethod on\npublisher-&gt;Messaging\ncalls the\nsame method\non target\nhandlers" fill="none" d="M488.39,59 C499.32,59 511.11,59 522.55,59" style="stroke:#383838;stroke-width:1"/><polygon fill="#383838" points="527.78 59 518.78 55 522.78 59 518.78 63 527.78 59" style="stroke:#383838;stroke-width:1"/><path id="Messaging\ncalls the\nsame method\non target\nhandlers-&gt;end" fill="none" d="M641.12,59 C653.87,59 666.36,59 675.52,59" style="stroke:#383838;stroke-width:1"/><polygon fill="#383838" points="680.77 59 671.782 54.974 675.77 58.986 671.759 62.974 680.77 59" style="stroke:#383838;stroke-width:1"/></g></svg>