<svg xmlns="http://www.w3.org/2000/svg" xmlns:xlink="http://www.w3.org/1999/xlink" width="418" height="49" contentScriptType="application/ecmascript" contentStyleType="text/css" style="width:418px;height:49px" preserveAspectRatio="none" version="1.1" viewBox="0 0 418 49" zoomAndPan="magnify"><defs><filter id="f332uld9n4kk6" width="300%" height="300%" x="-1" y="-1"><feGaussianBlur result="blurOut" stdDeviation="2"/><feColorMatrix in="blurOut" result="blurOut2" type="matrix" values="0 0 0 0 0 0 0 0 0 0 0 0 0 0 0 0 0 0 .4 0"/><feOffset dx="4" dy="4" in="blurOut2" result="blurOut3"/><feBlend in="SourceGraphic" in2="blurOut3" mode="normal"/></filter></defs><g><rect id="AB" width="111" height="26.488" x="6" y="8" fill="#F8F8F8" filter="url(#f332uld9n4kk6)" style="stroke:#383838;stroke-width:1.5"/><text x="9" y="26.535" fill="#000" font-family="Roboto" font-size="14" lengthAdjust="spacingAndGlyphs" textLength="105">application bus</text><rect id="PB" width="83" height="26.488" x="177" y="8" fill="#F8F8F8" filter="url(#f332uld9n4kk6)" style="stroke:#383838;stroke-width:1.5"/><text x="180" y="26.535" fill="#000" font-family="Roboto" font-size="14" lengthAdjust="spacingAndGlyphs" textLength="77">project bus</text><rect id="MB" width="87" height="26.488" x="320" y="8" fill="#F8F8F8" filter="url(#f332uld9n4kk6)" style="stroke:#383838;stroke-width:1.5"/><text x="323" y="26.535" fill="#000" font-family="Roboto" font-size="14" lengthAdjust="spacingAndGlyphs" textLength="81">module bus</text><path id="AB&lt;-PB" fill="none" d="M130.32,21 C146.24,21 162.7,21 176.98,21" style="stroke:#383838;stroke-width:1"/><polygon fill="#FFF" points="117.15 21 123.15 25 129.15 21 123.15 17 117.15 21" style="stroke:#383838;stroke-width:1"/><text x="161.961" y="35.96" fill="#000" font-family="Roboto" font-size="14" lengthAdjust="spacingAndGlyphs" textLength="7">*</text><path id="PB&lt;-MB" fill="none" d="M273.24,21 C288.62,21 305.18,21 319.81,21" style="stroke:#383838;stroke-width:1"/><polygon fill="#FFF" points="260.1 21 266.1 25 272.1 21 266.1 17 260.1 21" style="stroke:#383838;stroke-width:1"/><text x="304.994" y="35.86" fill="#000" font-family="Roboto" font-size="14" lengthAdjust="spacingAndGlyphs" textLength="7">*</text></g></svg>