<svg xmlns="http://www.w3.org/2000/svg" xmlns:xlink="http://www.w3.org/1999/xlink" width="897" height="109" contentScriptType="application/ecmascript" contentStyleType="text/css" style="width:897px;height:109px" preserveAspectRatio="none" version="1.1" viewBox="0 0 897 109" zoomAndPan="magnify"><defs><filter id="fdln4uiboadgg" width="300%" height="300%" x="-1" y="-1"><feGaussianBlur result="blurOut" stdDeviation="2"/><feColorMatrix in="blurOut" result="blurOut2" type="matrix" values="0 0 0 0 0 0 0 0 0 0 0 0 0 0 0 0 0 0 .4 0"/><feOffset dx="4" dy="4" in="blurOut2" result="blurOut3"/><feBlend in="SourceGraphic" in2="blurOut3" mode="normal"/></filter></defs><g><ellipse cx="16" cy="75" fill="#000" filter="url(#fdln4uiboadgg)" rx="10" ry="10" style="stroke:none;stroke-width:1"/><polygon fill="#F8F8F8" points="79 63 91 75 79 87 67 75 79 63" filter="url(#fdln4uiboadgg)" style="stroke:#383838;stroke-width:1.5"/><rect style="stroke:#383838;stroke-width:1.5" width="114" height="52.977" x="284" y="8.5" fill="#F8F8F8" filter="url(#fdln4uiboadgg)" rx="12.5" ry="12.5"/><text x="297.5" y="32.035" fill="#000" font-family="Roboto" font-size="14" lengthAdjust="spacingAndGlyphs" textLength="87">Get message</text><text x="294" y="48.523" fill="#000" font-family="Roboto" font-size="14" lengthAdjust="spacingAndGlyphs" textLength="94">bus reference</text><rect style="stroke:#383838;stroke-width:1.5" width="145" height="52.977" x="552" y="8.5" fill="#F8F8F8" filter="url(#fdln4uiboadgg)" rx="12.5" ry="12.5"/><text x="562" y="32.035" fill="#000" font-family="Roboto" font-size="14" lengthAdjust="spacingAndGlyphs" textLength="125">Create connection</text><text x="590" y="48.523" fill="#000" font-family="Roboto" font-size="14" lengthAdjust="spacingAndGlyphs" textLength="69">to the bus</text><rect style="stroke:#383838;stroke-width:1.5" width="87" height="36.488" x="738" y="62" fill="#F8F8F8" filter="url(#fdln4uiboadgg)" rx="12.5" ry="12.5"/><text x="748" y="85.535" fill="#000" font-family="Roboto" font-size="14" lengthAdjust="spacingAndGlyphs" textLength="67">Subscribe</text><ellipse cx="876" cy="80" fill="none" filter="url(#fdln4uiboadgg)" rx="10" ry="10" style="stroke:#000;stroke-width:1"/><ellipse cx="876.5" cy="80.5" fill="#000" rx="6" ry="6" style="stroke:none;stroke-width:1"/><path id="start-&gt;#118" fill="none" d="M26,75 C35.34,75 50.16,75 61.59,75" style="stroke:#383838;stroke-width:1"/><polygon fill="#383838" points="66.89 75 57.89 71 61.89 75 57.89 79 66.89 75" style="stroke:#383838;stroke-width:1"/><path id="#118-&gt;Get message\nbus reference" fill="none" d="M89.56,73.53 C119.73,68.89 214.66,54.28 278.58,44.45" style="stroke:#383838;stroke-width:1"/><polygon fill="#383838" points="283.9 43.63 274.398 41.039 278.958 44.387 275.609 48.947 283.9 43.63" style="stroke:#383838;stroke-width:1"/><text x="112" y="43.535" fill="#000" font-family="Roboto" font-size="14" lengthAdjust="spacingAndGlyphs" textLength="151">don&apos;t have connection</text><path id="Get message\nbus reference-&gt;Create connection\nto the bus" fill="none" d="M398.29,35 C440.86,35 499.79,35 546.69,35" style="stroke:#383838;stroke-width:1"/><polygon fill="#383838" points="551.77 35 542.77 31 546.77 35 542.77 39 551.77 35" style="stroke:#383838;stroke-width:1"/><path id="Create connection\nto the bus-&gt;Subscribe" fill="none" d="M697.1,55.79 C709.32,59.33 721.73,62.94 733.11,66.24" style="stroke:#383838;stroke-width:1"/><polygon fill="#383838" points="737.93 67.64 730.393 61.301 733.126 66.253 728.174 68.987 737.93 67.64" style="stroke:#383838;stroke-width:1"/><path id="#118-&gt;Subscribe" fill="none" d="M91,75.08 C164.73,75.6 588.33,78.63 732.48,79.66" style="stroke:#383838;stroke-width:1"/><polygon fill="#383838" points="737.9 79.7 728.935 75.623 732.9 79.657 728.866 83.623 737.9 79.7" style="stroke:#383838;stroke-width:1"/><text x="419" y="73.535" fill="#000" font-family="Roboto" font-size="14" lengthAdjust="spacingAndGlyphs" textLength="112">have connection</text><path id="Subscribe-&gt;end" fill="none" d="M825.23,80 C837.89,80 850.91,80 860.45,80" style="stroke:#383838;stroke-width:1"/><polygon fill="#383838" points="865.64 80 856.64 76 860.64 80 856.64 84 865.64 80" style="stroke:#383838;stroke-width:1"/></g></svg>